<svg fill="none" height="24" viewBox="0 0 24 24" width="24" xmlns="http://www.w3.org/2000/svg"><path d="m24 12c0-6.63-5.37-12-12-12s-12 5.37-12 12c0 5.99 4.39 10.95 10.13 11.86v-8.39h-3.05v-3.47h3.05v-2.64c0-3.01 1.79-4.67 4.53-4.67 1.31 0 2.69.23 2.69.23v2.95h-1.51c-1.49 0-1.96.93-1.96 1.87v2.26h3.33l-.53 3.47h-2.8v8.39c5.73-.9 10.12-5.87 10.12-11.86z" fill="#fff"/><path d="m16.6701 15.4695.53-3.47h-3.33v-2.25005c0-.95.46-1.87 1.96-1.87h1.51v-2.96s-1.37-.23-2.69-.23c-2.74 0-4.53 1.66-4.53 4.67v2.64005h-3.04002v3.47h3.05002v8.39c.61.09 1.23.14 1.87.14s1.26-.05 1.88-.15v-8.39h2.79z" fill="#263a48"/></svg>