<svg fill="none" height="18" viewBox="0 0 21 18" width="21" xmlns="http://www.w3.org/2000/svg" xmlns:xlink="http://www.w3.org/1999/xlink"><clipPath id="a"><path d="m0 0h21v18h-21z"/></clipPath><g clip-path="url(#a)"><path d="m.75 2.25c-.421875 0-.75-.375-.75-.75s.328125-.75.75-.75h19.5c.375 0 .75.42188.75.79688s-.375.70312-.75.70312zm19.5 6c.375 0 .75.375.75.75 0 .42188-.375.75-.75.75h-19.5c-.421875 0-.75-.32812-.75-.75 0-.375.328125-.75.75-.75zm0 7.5c.375 0 .75.4219.75.7969s-.375.7031-.75.7031h-19.5c-.421875 0-.75-.375-.75-.75s.328125-.75.75-.75z" fill="#666"/></g></svg>