<svg fill="none" height="24" viewBox="0 0 24 24" width="24" xmlns="http://www.w3.org/2000/svg"><path d="m12 24c6.6274 0 12-5.3726 12-12 0-6.62742-5.3726-12-12-12-6.62742 0-12 5.37258-12 12 0 6.6274 5.37258 12 12 12z" fill="#fff"/><g fill="#263a48"><path d="m11.9999 5.80945c2.02 0 2.26.01 3.05.04.74.03 1.14.16 1.4.26.35.14.6.3.87.57.26.26.43.52.57.87.1.27.23.67.26 1.4.04.8.04 1.04.04 3.05005 0 2.01-.01 2.26-.04 3.05-.03.74-.16 1.14-.26 1.4-.14.35-.3.6-.57.87-.26.26-.52.43-.87.57-.27.1-.67.23-1.4.26-.8.04-1.04.04-3.05.04-2.01996 0-2.25996-.01-3.04996-.04-.74-.03-1.14-.16-1.4-.26-.35-.14-.6-.3-.87-.57-.26-.26-.43-.52-.57-.87-.1-.27-.23-.67-.26-1.4-.04-.8-.04-1.04-.04-3.05 0-2.01005.01-2.26005.04-3.05005.03-.74.16-1.14.26-1.4.14-.35.3-.6.57-.87.26-.26.52-.43.87-.57.27-.1.67-.23 1.4-.26.79-.04 1.03-.04 3.04996-.04zm0-1.37c-2.04996 0-2.30996.01-3.11996.05-.8.04-1.35.16-1.83.35-.5.19-.92.45-1.34.87s-.68.84-.87 1.34c-.19.48-.31 1.03-.35 1.84-.04.8-.05 1.06-.05 3.11005 0 2.05.01 2.31.05 3.12.04.8.16 1.35.35 1.83.19.5.45.92.87 1.34s.84.68 1.34.87c.48.19 1.03.31 1.83.35.81.04 1.06.05 3.11996.05 2.05 0 2.31-.01 3.12-.05.8-.04 1.35-.16 1.83-.35.5-.19.92-.45 1.34-.87s.68-.84.87-1.34c.19-.48.31-1.03.35-1.83.04-.81.05-1.06.05-3.12 0-2.06005-.01-2.31005-.05-3.12005-.04-.8-.16-1.35-.35-1.83-.19-.5-.45-.92-.87-1.34s-.84-.68-1.34-.87c-.48-.19-1.03-.31-1.83-.35-.81-.04-1.07-.05-3.12-.05z"/><path d="m12.0001 8.11914c-2.13998 0-3.87998 1.74-3.87998 3.87996 0 2.14 1.74 3.88 3.87998 3.88 2.14 0 3.88-1.74 3.88-3.88 0-2.13996-1.74-3.87996-3.88-3.87996zm0 6.39996c-1.39 0-2.51998-1.13-2.51998-2.52s1.12998-2.51996 2.51998-2.51996 2.52 1.12996 2.52 2.51996-1.13 2.52-2.52 2.52z"/><path d="m16.0301 8.87859c.5026 0 .91-.40742.91-.91s-.4074-.91-.91-.91-.91.40742-.91.91.4074.91.91.91z"/></g></svg>