<svg fill="none" height="24" viewBox="0 0 24 24" width="24" xmlns="http://www.w3.org/2000/svg"><path d="m12 24c6.6274 0 12-5.3726 12-12 0-6.62742-5.3726-12-12-12-6.62742 0-12 5.37258-12 12 0 6.6274 5.37258 12 12 12z" fill="#fff"/><path d="m9.5802 18.9093c5.86 0 9.07-4.86 9.07-9.07 0-.14 0-.28-.01-.41.62-.45 1.16-1.01 1.59-1.65-.57.25-1.19.42-1.83.5.66-.39 1.16-1.02 1.4-1.76-.62.37-1.3.63-2.02.77-.58-.62-1.41-1.01-2.33-1.01-1.76 0-3.19 1.43-3.19 3.19 0 .25.03.49.08.73-2.65-.13-5-1.4-6.57-3.33-.27.47-.43 1.02-.43 1.6 0 1.11.56 2.08 1.42 2.65-.52-.02-1.01-.16-1.44-.4v.04c0 1.54 1.1 2.83 2.56 3.12-.27.07-.55.11-.84.11-.21 0-.4-.02-.6-.06.41 1.27 1.58 2.19 2.98 2.21-1.09.85-2.46 1.36-3.96 1.36-.26 0-.51-.01-.76-.04 1.4.93 3.08 1.45 4.88 1.45z" fill="#263a48"/></svg>