<svg fill="none" height="42" viewBox="0 0 42 42" width="42" xmlns="http://www.w3.org/2000/svg" xmlns:xlink="http://www.w3.org/1999/xlink"><clipPath id="a"><path d="m7 7h27.16v27.28h-27.16z"/></clipPath><circle cx="21" cy="21" fill="#ea3d3d" r="21"/><g clip-path="url(#a)" clip-rule="evenodd" fill="#fff" fill-rule="evenodd"><path d="m33.7899 17.47c-1.5-6.18-6.81-10.39-13.22-10.47-.85.02-1.75.1-2.59.26-8.98996 1.83-13.60996 11.74-9.25996 19.77.13.22.13.4.08.62-.6 2.1-1.17 4.22-1.75 6.33-.09.34-.09.34.24.26 2.2-.58 4.37996-1.15 6.56996-1.72.2-.04.34-.03.5.04 2.81 1.46 5.8 1.86 8.91 1.26 7.42-1.43 12.31-9.01 10.52-16.35zm-11.32 14.18c-.62.1-1.24.18-1.56.16-2.39 0-4.32-.54-6.11-1.62-.25-.13-.44-.18-.69-.1-1.22.34-2.43.63-3.62.96-.26.07-.29.01-.22-.22.31-1.14.63-2.28.96-3.42.08-.31.05-.55-.13-.83-2.47996-3.98-2.35996-8.91.4-12.59 2.87-3.81 6.77-5.39 11.44-4.41 4.61.97 7.55 3.94 8.62 8.53 1.49 6.27-2.75 12.5-9.09 13.54z"/><path d="m24.1102 27.0495c-.47.03-.95-.09-1.4-.2-3.12-.92-5.45-2.84-7.34-5.42-.69-.96-1.35-1.96-1.56-3.17-.27-1.43.15-2.67 1.2-3.63.35-.33 1.41-.46 1.82-.27.14.08.25.21.3.35.39.94.79 1.86 1.18 2.79.06.19.04.37-.05.55-.21.42-.51.76-.85 1.12-.24.24-.24.48-.06.75 1.1 1.85 2.61 3.17 4.61 3.98.3.11.51.08.69-.15.35-.43.69-.83 1.01-1.27.21-.29.47-.33.77-.19.65.29 1.32.61 1.96.91.17.08.3.14.45.22.65.33.65.34.6 1.07-.12 1.43-1.18 2.15-2.45 2.5-.3.07-.6.07-.88.06z"/></g></svg>