<svg fill="none" height="24" viewBox="0 0 24 24" width="24" xmlns="http://www.w3.org/2000/svg"><path d="m12 24c6.6274 0 12-5.3726 12-12 0-6.62742-5.3726-12-12-12-6.62742 0-12 5.37258-12 12 0 6.6274 5.37258 12 12 12z" fill="#fff"/><path d="m19.67 8.15039c-.18-.69-.73-1.23-1.41-1.41-1.26-.34-6.26-.34-6.26-.34s-5 0-6.25.33c-.69.19-1.23.73-1.42 1.42-.33 1.25-.33 3.85001-.33 3.85001s0 2.6.33 3.85c.18.69.73 1.23 1.41 1.41 1.26.34 6.26.34 6.26.34s5 0 6.25-.33c.69-.18 1.23-.73 1.41-1.41.34-1.26.34-3.86.34-3.86s0-2.60001-.33-3.85001zm-9.27 6.25001v-4.80001l4.16 2.40001z" fill="#263a48"/></svg>