<svg fill="none" height="42" viewBox="0 0 124 42" width="124" xmlns="http://www.w3.org/2000/svg"><path d="m124.017 2.12497h-23.312l-2.1013 10.13193-4.0661-10.13193h-6.272c-.5501.01215-1.0804.20848-1.5065.55779s-.7235.83154-.8451 1.37l-2.2465 10.87994-2.5414-12.79753h-6.9192c-.3938.00069-.7817.09651-1.1309.27938-.3491.18286-.6493.44739-.875.77122l-8.4338 11.77413c-.2255.322-.5248.585-.8727.7666-.348.1817-.7343.2768-1.1265.2772h-4.7066l2.2533-10.97174c.0245-.13806.037-.27798.0373-.4182.0018-.32639-.0605-.64993-.1833-.95216-.1229-.30223-.3038-.57722-.5326-.80927-.2287-.23205-.5008-.41662-.8006-.54318-.2999-.12655-.6216-.1926-.9469-.19438h-3.6256l-1.7586 8.44213c-.098-2.52672-1.1774-4.9147-3.0074-6.65313-1.8301-1.73844-4.2655-2.6893-6.7852-2.64919-5.8518 0-10.9582 4.75997-11.4055 10.63172-.4473 5.8718 3.9374 10.6284 9.7858 10.6284 4.4423 0 8.4474-2.7404 10.3212-6.6266l-.5083 2.4718c-.0766.2454-.1154.501-.1152.7582-.0022.3267.0598.6506.1824.9532s.3035.578.5323.8104.501.4173.8011.5441c.3.1267.6221.1929.9476.1947h13.8215c.3889.0009.7725-.0912 1.119-.2685.3464-.1774.6458-.435.8734-.7515l7.6917-10.80177.881 4.53557c-1.0944.6358-3.1004 3.06-1.7382 3.06.6566.0032 1.292.2341 1.7984.6536s.8527 1.0018.9801 1.6482l.3761 1.938h10.8972l2.1957-10.6216 4.5067 10.5944h5.6892c.577-.0028 1.135-.2084 1.577-.581.442-.3727.74-.8889.842-1.459l2.162-10.46856c.117-.55373.42-1.05049.858-1.40748.437-.35699.984-.55263 1.548-.55431h2.663l-2.988 14.47035h4.703c.561-.0117 1.101-.2142 1.532-.5743.431-.3602.727-.8566.84-1.4079l2.588-12.48475h3.297c.564-.0045 1.109-.20166 1.546-.55895.437-.35728.739-.85332.857-1.40624zm-78.3136 9.46213c-.1392 1.3708-.7705 2.644-1.7761 3.5823-1.0055.9384-2.3169 1.4778-3.6895 1.5177-.5786.0172-1.1541-.0904-1.6877-.3157-.5335-.2253-1.0126-.5629-1.4049-.99-.3922-.4271-.6885-.9338-.8687-1.4857-.1803-.552-.2403-1.1364-.176-1.7136.1399-1.3705.7714-2.64329 1.7768-3.58148 1.0055-.93818 2.3164-1.47783 3.6888-1.51847.5744-.01117 1.1448.09762 1.675.31945.5303.22183 1.0087.55186 1.4051.96914.3889.43319.6838.94286.8658 1.4966.182.55376.2472 1.13936.1914 1.71976z" fill="#14bef0"/><path d="m22.1605 24.3643-.0271-.0476c-2.128-3.893-3.358-7.14-3.358-12.3148-.0395-3.39664.9702-6.72227 2.8903-9.51991.0739-.12425.1542-.24454.2406-.3604.1912-.20359.3261-.45368.3914-.72557.0654-.27189.059-.556188-.0186-.824823-.0813-.166574-.2062-.307777-.3615-.408421-.1552-.1006443-.3348-.15692052-.5195-.162776h-11.3039c-.5949.00336903-1.16869.221777-1.61615.615188-.44747.393412-.73863.935462-.82012 1.526802l-7.6036568 36.83201c-.0353109.1723-.0534718.3477-.054215.5236-.00223172.3267.0597406.6506.1823728.9532.122631.3026.303517.578.53231.8104.228792.2325.500999.4173.801069.5441.30006.1268.62208.1929.94764.1947h9.88065c3.7273 0 12.1069-4.9742 12.1069-10.6555.1254-2.4786-1.6467-5.8786-2.2905-6.9802zm-8.383-5.1306c-.107.5245-.3887.9969-.7989 1.3392-.4102.3424-.9244.5344-1.4578.5444h-4.47956l2.64298-12.65474h6.34318zm2.8903-14.16092c-.1113.52498-.3981.99599-.8129 1.33489s-.9326.52531-1.4675.5283h-4.44905l.90475-4.32478h6.333z" fill="#14bef0"/><g fill="#666"><path d="m44.8257 40.8678-.2304-2.38h-4.6625l-1.3384 2.38h-2.6769l7.8544-13.515h2.0093l1.6943 13.515zm-.8912-9.52-2.7785 4.9198h3.2631z"/><path d="m48.6616 40.8678 2.2499-9.8905h2.399l-2.2533 9.8905zm3.7273-11.1247c-.1895.0042-.3772-.0371-.5475-.1205-.1703-.0833-.3183-.2063-.4317-.3586-.1134-.1524-.1888-.3297-.2201-.5172-.0312-.1875-.0174-.3799.0405-.5609.1064-.4222.3447-.7992.6801-1.0757.3353-.2766.75-.4381 1.1835-.4611.8302 0 1.3554.68 1.1419 1.5368-.1017.4228-.3354.802-.667 1.0821s-.7438.4466-1.1763.4751z"/><path d="m56.5873 40.9834c-1.5078 0-2.8361-.17-3.7645-1.4246l1.9314-1.615c.6099.816 1.6163.9316 2.3515.9316.8302 0 1.762-.2856 1.9281-1.02.1152-.4964-.0678-.8364-.8031-.9146l-1.4773-.1496c-1.6943-.17-2.5854-.9486-2.172-2.771.4676-2.04 2.4701-3.1551 4.4049-3.1551 1.4943 0 2.6871.2686 3.3885 1.1593l-1.823 1.5368c-.4337-.51-1.2469-.68-2.0771-.68-.9589 0-1.4672.4556-1.579.9486-.0847.3604-.0305.7786.7996.8568l1.4774.1496c1.8535.1904 2.5752 1.2342 2.1957 2.907-.4778 2.1964-2.521 3.2402-4.7811 3.2402z"/><path d="m65.1158 40.8678c-1.9721 0-2.477-1.4212-2.1584-2.8288l2.4396-10.6862h2.399l-2.399 10.54c-.1355.5882.0339.8908.6438.8908h.9217l-.4778 2.0876z"/><path d="m73.0414 40.8678.1965-.8534c-.6993.646-1.6255.9871-2.5752.9486-1.0911 0-1.8162-.2856-2.2533-.8738-.2007-.329-.33-.6968-.3797-1.0793-.0496-.3825-.0184-.7713.0917-1.1409.3591-1.5742 1.6942-2.8662 3.934-2.8662h2.2668l.1118-.493c.2474-1.0846-.1592-1.5572-1.4333-1.5572-.3778-.0227-.756.0387-1.1075.1798-.3515.141-.6675.3583-.9255.6362l-1.1657-1.5367c1.1826-1.0642 2.1754-1.36 3.7782-1.36 2.6904 0 3.8221 1.1798 3.2969 3.4951l-1.4841 6.511zm.8979-4.1752h-1.9009c-.864 0-1.4401.4182-1.5993 1.1186-.1593.7004.1829 1.139 1.1215 1.139.5808.061 1.1622-.1086 1.6197-.4726.3508-.3315.5759-.775.6371-1.2546z"/><path d="m83.2746 40.8678 1.3553-5.9806c.305-1.3599-.4201-1.8019-1.1758-1.8019-.7556 0-1.6942.4556-2.0127 1.8019l-1.3554 5.9806h-2.399l2.2533-9.8905h2.3414l-.2067.9112c.7273-.6438 1.6598-1.0055 2.6295-1.02.9589 0 1.6603.34 2.0669.8738.593.799.5862 1.7306.3389 2.8117l-1.4401 6.3206z"/><path d="m90.9796 40.8678c-1.9517 0-2.46-1.4212-2.1381-2.8288l1.1148-4.896h-1.0165l.4303-1.8631h1.0166l.6776-2.924h2.3957l-.6777 2.924h1.6942l-.4269 1.8801h-1.6943l-1.0809 4.76c-.1287.5678.0542.8908.6269.8908h.8674l-.4777 2.0876z"/><path d="m96.9603 36.6926c-.2914 1.2716.2541 2.2032 1.5993 2.2032.44.012.8779-.0642 1.2881-.2242.4103-.1599.7843-.4004 1.1003-.7074l1.122 1.462c-1.206 1.02-2.2702 1.5572-4.0017 1.5572-2.2702 0-4.2017-1.0642-3.2902-5.0694.7353-3.2266 2.8463-5.0524 5.3339-5.0524 2.673 0 3.727 2.0162 3.107 4.7294l-.251 1.1016zm4.0657-2.754c-.06-.3114-.234-.5889-.488-.7777-.254-.1889-.5695-.2753-.8839-.2423-.3668.002-.7272.0965-1.0481.2747s-.592.4345-.7884.7453c-.2129.3263-.3698.686-.4642 1.0642h3.6526c.074-.3505.078-.7123.01-1.0642z"/><path d="m107.075 40.9834c-1.511 0-2.836-.17-3.768-1.4246l1.935-1.615c.606.816 1.613.9316 2.348.9316.83 0 1.762-.2856 1.932-1.02.111-.4964-.068-.8364-.807-.9146l-1.477-.1496c-1.694-.17-2.586-.9486-2.172-2.771.467-2.04 2.47-3.1551 4.422-3.1551 1.494 0 2.687.2686 3.405 1.1593l-1.82 1.5334c-.433-.51-1.247-.68-2.077-.68-.959 0-1.467.4556-1.579.9486-.084.3604-.03.7786.8.8568l1.477.1496c1.854.1904 2.576 1.2342 2.196 2.907-.498 2.1998-2.541 3.2436-4.815 3.2436z"/></g><path d="m34.8505 1.67279c.3388-.2482 1.4062-.917994 1.4841-1.67279h-7.4816c-1.4607.00048765-2.8699.541629-3.9577 1.51979-1.368 1.37526-2.4483 3.01097-3.1774 4.81105-.7291 1.80007-1.0923 3.72816-1.0684 5.67106 0 4.5934 1.0166 7.5276 3.1276 11.4104 0 0 2.5718 4.3826 2.5481 7.9491-.0045.398-.0419.7949-.1118 1.1866-.964 3.213-3.0422 5.9737-5.8587 7.7826-.3388.2482-1.4062.9146-1.4841 1.6694h8.8472c1.4603.0025 2.8694-.5391 3.9543-1.5198 2.2709-2.502 3.5278-5.7653 3.524-9.1493 0-5.6202-3.0496-9.4622-4.344-11.56-1.4522-2.3866-2.2278-5.1257-2.2431-7.922-.0441-2.46155 1.7992-7.38472 6.2415-10.17611z" fill="#e20817"/></svg>